<mxfile host="65bd71144e">
    <diagram id="JMNcVAGFMCr3GAfiJkCJ" name="Страница 1">
        <mxGraphModel dx="1416" dy="1815" grid="1" gridSize="10" guides="1" tooltips="1" connect="1" arrows="1" fold="1" page="1" pageScale="1" pageWidth="827" pageHeight="1169" math="0" shadow="0">
            <root>
                <mxCell id="0"/>
                <mxCell id="1" parent="0"/>
                <mxCell id="2" value="&lt;div style=&quot;color: rgb(171 , 178 , 191) ; background-color: rgb(40 , 44 , 52) ; font-family: , &amp;#34;consolas&amp;#34; , &amp;#34;courier new&amp;#34; , monospace ; font-size: 18px ; line-height: 24px&quot;&gt;&lt;div&gt;&lt;span style=&quot;color: #c678dd&quot;&gt;class&lt;/span&gt; &lt;span style=&quot;color: #e5c07b&quot;&gt;Database&lt;/span&gt; {&lt;/div&gt;&lt;div&gt;&amp;nbsp; &lt;span style=&quot;color: #c678dd&quot;&gt;private&lt;/span&gt; &lt;span style=&quot;color: #c678dd&quot;&gt;constructor&lt;/span&gt;() {}&lt;/div&gt;&lt;br&gt;&lt;div&gt;&amp;nbsp; &lt;span style=&quot;color: #c678dd&quot;&gt;private&lt;/span&gt; &lt;span style=&quot;color: #c678dd&quot;&gt;static&lt;/span&gt; instance&lt;span style=&quot;color: #56b6c2&quot;&gt;:&lt;/span&gt; &lt;span style=&quot;color: #e5c07b&quot;&gt;Database&lt;/span&gt;;&lt;/div&gt;&lt;br&gt;&lt;div&gt;&amp;nbsp; &lt;span style=&quot;color: #c678dd&quot;&gt;static&lt;/span&gt; &lt;span style=&quot;color: #61afef&quot;&gt;getInstance&lt;/span&gt;() {&lt;/div&gt;&lt;div&gt;&amp;nbsp; &amp;nbsp; &lt;span style=&quot;color: #c678dd&quot;&gt;if&lt;/span&gt; (&lt;span style=&quot;color: #56b6c2&quot;&gt;!&lt;/span&gt;Database.&lt;span style=&quot;color: #e06c75&quot;&gt;instance&lt;/span&gt;) {&lt;/div&gt;&lt;div&gt;&amp;nbsp; &amp;nbsp; &amp;nbsp; Database.&lt;span style=&quot;color: #e06c75&quot;&gt;instance&lt;/span&gt; &lt;span style=&quot;color: #56b6c2&quot;&gt;=&lt;/span&gt; &lt;span style=&quot;color: #c678dd&quot;&gt;new&lt;/span&gt; &lt;span style=&quot;color: #61afef&quot;&gt;Database&lt;/span&gt;();&lt;/div&gt;&lt;div&gt;&amp;nbsp; &amp;nbsp; }&lt;/div&gt;&lt;div&gt;&amp;nbsp; &amp;nbsp; &lt;span style=&quot;color: #c678dd&quot;&gt;return&lt;/span&gt; Database.&lt;span style=&quot;color: #e06c75&quot;&gt;instance&lt;/span&gt;;&lt;/div&gt;&lt;div&gt;&amp;nbsp; }&lt;/div&gt;&lt;div&gt;}&lt;/div&gt;&lt;/div&gt;" style="rounded=0;whiteSpace=wrap;html=1;" vertex="1" parent="1">
                    <mxGeometry x="30" y="-240" width="444" height="430" as="geometry"/>
                </mxCell>
                <mxCell id="4" style="edgeStyle=none;html=1;entryX=1;entryY=0.5;entryDx=0;entryDy=0;" edge="1" parent="1" source="3" target="2">
                    <mxGeometry relative="1" as="geometry"/>
                </mxCell>
                <mxCell id="3" value="const x1 = Database.getInstance()" style="rounded=0;whiteSpace=wrap;html=1;" vertex="1" parent="1">
                    <mxGeometry x="630" y="-90" width="230" height="130" as="geometry"/>
                </mxCell>
            </root>
        </mxGraphModel>
    </diagram>
</mxfile>